<svg width="369" height="446" viewBox="0 0 369 446" fill="none" xmlns="http://www.w3.org/2000/svg">
<ellipse cx="178.469" cy="219.181" rx="29.9748" ry="37.7669" transform="rotate(-31.5579 178.469 219.181)" fill="white"/>
<ellipse cx="178.468" cy="219.181" rx="25.0134" ry="33.2266" transform="rotate(-31.5579 178.468 219.181)" fill="white"/>
<ellipse cx="2.02007" cy="3.17442" rx="2.02007" ry="3.17442" transform="matrix(0.92836 -0.373812 0.372706 0.927093 131.684 165.682)" fill="white"/>
<ellipse cx="2.02007" cy="3.17442" rx="2.02007" ry="3.17442" transform="matrix(-0.759429 0.651817 0.651172 0.757876 152.212 152.562)" fill="white"/>
<path fill-rule="evenodd" clip-rule="evenodd" d="M138.192 152.67C134.803 154.786 129.139 160.297 133.6 165.414C136.591 168.844 136.154 170.912 135.681 173.148C135.272 175.081 134.837 177.139 136.569 180.311C138.142 183.193 140.101 184.687 142.057 186.178C144.744 188.228 147.424 190.272 149.085 195.902C151.38 203.685 163.032 222.869 168.619 231.367L181.286 223.588L181.286 223.587L193.812 215.976C188.842 207.102 177.471 187.999 171.621 182.376C167.499 178.415 167.541 175.165 167.584 171.926C167.617 169.419 167.65 166.917 165.751 164.096C163.722 161.081 161.204 160.527 158.779 159.994C156.004 159.384 153.352 158.801 151.693 154.588C149.207 148.271 141.706 150.759 138.267 152.793L138.192 152.67Z" fill="white"/>
<ellipse cx="4.88203" cy="6.87666" rx="4.88203" ry="6.87666" transform="matrix(-0.550344 0.835582 0.835391 0.548677 138.978 172.995)" fill="white"/>
<ellipse cx="4.88203" cy="6.87666" rx="4.88203" ry="6.87666" transform="matrix(-1.00003 -0.0247954 -0.0263083 0.999312 167.419 162.159)" fill="white"/>
<path d="M185.093 201.195C178.413 210.614 165.675 216.421 159.963 217.203L161.826 220.136C175.2 219.136 184.03 209.002 186.937 204.105L185.093 201.195Z" fill="white"/>
<path d="M186.905 203.998C179.181 215.712 167.484 219.251 161.775 220.102L163.284 222.371C176.668 221.209 186.04 212.206 188.859 207.285L186.905 203.998Z" fill="white"/>
<ellipse opacity="0.2" cx="0.905879" cy="1.42353" rx="0.905879" ry="1.42353" transform="matrix(0.992509 -0.126642 0.125254 0.991564 151.018 154.152)" fill="white"/>
<ellipse opacity="0.2" cx="0.905879" cy="1.42353" rx="0.905879" ry="1.42353" transform="matrix(0.992509 -0.126642 0.125254 0.991564 132.909 165.532)" fill="white"/>
<path d="M139.661 170.802C134.056 162.467 141.425 156.028 141.455 156.155C151.087 153.337 154.833 161.181 155.204 162.453C156.226 165.955 162.867 165.563 163.272 169.613C163.678 173.662 167.669 180.185 169.205 185.493C170.146 188.746 169.623 190.461 168.973 191.211C169.19 191.082 169.107 191.148 168.898 191.293C168.723 191.474 168.541 191.588 168.38 191.645C168.574 191.516 168.762 191.387 168.898 191.293C168.923 191.267 168.948 191.24 168.973 191.211C168.688 191.381 167.883 191.888 166.159 192.995C161.297 196.118 157.058 189.837 148.309 185.032C139.559 180.227 146.668 181.221 139.661 170.802Z" fill="white"/>
<path d="M164.249 189.854C160.09 191.908 153.497 183.931 150.72 179.686C152.823 177.677 157.63 173.733 160.038 174.024C163.047 174.388 169.447 187.285 164.249 189.854Z" fill="white"/>
<path d="M164.377 188.257C166.932 186.232 162.389 180.721 159.798 178.218L154.43 181.481C156.681 184.583 161.823 190.282 164.377 188.257Z" fill="white"/>
<path d="M162.758 186.281C163.081 185.527 158.615 180.056 156.341 177.414L155.238 178.257C157.61 181.246 162.435 187.035 162.758 186.281Z" fill="white"/>
<path d="M147.095 177.335C146.316 170.047 142.852 167.85 141.217 167.663C142.04 159.673 148.759 159.959 152.016 161.101C152.238 168.557 151.888 162.697 159.127 170.023C164.919 175.883 161.805 180.964 159.524 182.772C155.705 183.996 147.873 184.622 147.095 177.335Z" fill="white"/>
<path d="M161.202 172.677C149.672 167.941 148.82 177.051 149.836 182.198C151.46 183.573 155.704 185.599 159.691 182.705C163.677 179.81 162.359 174.813 161.202 172.677Z" fill="white"/>
<path d="M153.494 175.882C152.981 175.194 151.913 173.994 151.743 174.698C151.574 175.403 152.84 175.781 153.494 175.882Z" fill="white"/>
<path d="M154.886 175.04C154.395 174.336 153.593 172.943 154.315 173.005C155.037 173.067 154.996 174.387 154.886 175.04Z" fill="white"/>
<path d="M139.581 144.554L143.941 150.471C142.512 155.848 135.432 158.496 132.07 159.149L127.717 153.055L139.581 144.554Z" fill="white"/>
<path d="M143.941 150.471C145.203 154.331 144.333 161.209 132.054 159.095L143.941 150.471Z" fill="white"/>
<ellipse cx="7.30377" cy="1.259" rx="7.30377" ry="1.259" transform="matrix(0.816711 -0.57849 0.577705 0.815224 126.972 151.995)" fill="white"/>
<path d="M133.838 151.106C133.878 151.102 133.91 151.096 133.941 151.095C134.201 151.084 134.412 151.145 134.608 151.315C134.691 151.387 134.767 151.47 134.845 151.546C134.913 151.614 134.981 151.681 135.051 151.748C135.069 151.765 135.073 151.775 135.053 151.796C135.01 151.839 134.989 151.894 135.006 151.955C135.021 152.01 135.059 152.043 135.11 152.056C135.163 152.07 135.211 152.054 135.253 152.021C135.274 152.004 135.281 151.985 135.276 151.956C135.244 151.738 135.167 151.538 135.051 151.352C134.955 151.199 134.831 151.068 134.714 150.934C134.647 150.857 134.583 150.777 134.513 150.703C134.47 150.655 134.434 150.607 134.407 150.548C134.38 150.49 134.366 150.427 134.368 150.359C134.434 150.367 134.493 150.392 134.542 150.432C134.587 150.471 134.628 150.517 134.667 150.562C134.708 150.611 134.743 150.665 134.781 150.715C134.881 150.847 134.979 150.98 135.083 151.109C135.257 151.323 135.473 151.479 135.729 151.574C135.763 151.588 135.788 151.579 135.812 151.555C135.873 151.495 135.881 151.403 135.83 151.34C135.784 151.282 135.69 151.272 135.624 151.322C135.6 151.34 135.592 151.333 135.579 151.311C135.509 151.2 135.438 151.088 135.367 150.978C135.288 150.852 135.202 150.731 135.161 150.585C135.108 150.391 135.121 150.221 135.183 150.029C135.188 150.015 135.193 150.002 135.2 149.982C135.21 149.995 135.217 150.003 135.223 150.011C135.656 150.547 136.07 151.061 136.503 151.597C136.527 151.628 136.527 151.628 136.499 151.651C136.391 151.741 136.281 151.831 136.173 151.921C136.154 151.937 136.15 151.949 136.162 151.972C136.249 152.145 136.273 152.327 136.228 152.517C136.219 152.557 136.217 152.6 136.212 152.642C136.092 152.62 135.966 152.642 135.846 152.6C135.747 152.566 135.654 152.521 135.574 152.453C135.556 152.438 135.543 152.44 135.527 152.453C135.416 152.545 135.306 152.635 135.196 152.727C135.176 152.743 135.165 152.746 135.147 152.723C134.712 152.185 134.295 151.667 133.86 151.128C133.855 151.127 133.85 151.122 133.838 151.106ZM134.157 151.253C134.156 151.257 134.152 151.261 134.15 151.264C134.158 151.274 134.166 151.284 134.174 151.293C134.382 151.552 134.575 151.791 134.784 152.05C134.818 152.092 134.818 152.092 134.862 152.056C134.878 152.043 134.883 152.032 134.874 152.012C134.849 151.947 134.851 151.881 134.876 151.819C134.886 151.792 134.878 151.777 134.86 151.76C134.771 151.675 134.679 151.589 134.593 151.5C134.503 151.408 134.421 151.352 134.302 151.305C134.253 151.285 134.206 151.271 134.157 151.253ZM135.288 150.325C135.285 150.328 135.282 150.327 135.28 150.33C135.28 150.348 135.281 150.365 135.283 150.382C135.297 150.509 135.306 150.611 135.371 150.72C135.455 150.859 135.542 150.995 135.628 151.132C135.638 151.151 135.652 151.158 135.676 151.154C135.742 151.143 135.805 151.154 135.864 151.19C135.891 151.207 135.911 151.2 135.941 151.164C135.959 151.141 135.938 151.132 135.928 151.119C135.715 150.856 135.52 150.614 135.307 150.349C135.301 150.34 135.295 150.331 135.288 150.325ZM135.326 152.151C135.318 152.155 135.308 152.16 135.297 152.165C135.195 152.217 135.093 152.23 134.993 152.162C134.979 152.153 134.969 152.152 134.958 152.164C134.948 152.172 134.939 152.18 134.929 152.188C134.916 152.199 134.915 152.209 134.926 152.223C135.009 152.327 135.094 152.432 135.18 152.535C135.184 152.54 135.205 152.544 135.211 152.539C135.285 152.48 135.361 152.417 135.433 152.355C135.439 152.35 135.442 152.332 135.439 152.325C135.402 152.268 135.365 152.211 135.326 152.151ZM135.911 151.666C135.961 151.717 136.01 151.764 136.059 151.814C136.073 151.828 136.084 151.819 136.095 151.81C136.165 151.752 136.232 151.694 136.303 151.638C136.325 151.62 136.325 151.606 136.307 151.586C136.231 151.494 136.157 151.401 136.081 151.306C136.046 151.263 136.046 151.263 136.004 151.298C135.992 151.309 135.981 151.318 135.989 151.336C136.03 151.438 136.007 151.531 135.95 151.618C135.937 151.636 135.921 151.651 135.911 151.666ZM135.306 151.516C135.354 151.654 135.399 151.79 135.419 151.935C135.485 151.929 135.547 151.924 135.609 151.916C135.618 151.916 135.629 151.902 135.633 151.892C135.65 151.841 135.663 151.789 135.681 151.737C135.686 151.721 135.683 151.712 135.666 151.705C135.547 151.662 135.44 151.599 135.333 151.53C135.324 151.526 135.314 151.52 135.306 151.516ZM135.674 152.336C135.726 152.413 135.918 152.495 135.977 152.475C135.978 152.473 135.978 152.47 135.978 152.47C135.92 152.398 135.863 152.325 135.805 152.255C135.8 152.25 135.784 152.25 135.777 152.253C135.741 152.278 135.708 152.308 135.674 152.336ZM136.094 152.383C136.125 152.3 136.074 152.095 136.02 152.047C135.99 152.072 135.957 152.099 135.927 152.124C135.909 152.139 135.909 152.151 135.923 152.167C135.97 152.225 136.017 152.283 136.063 152.342C136.072 152.355 136.082 152.368 136.094 152.383ZM135.633 152.187C135.651 152.172 135.671 152.158 135.687 152.141C135.692 152.136 135.694 152.116 135.69 152.113C135.632 152.059 135.552 152.038 135.483 152.071C135.468 152.079 135.464 152.087 135.471 152.102C135.496 152.144 135.522 152.185 135.548 152.228C135.557 152.243 135.57 152.242 135.582 152.232C135.598 152.217 135.616 152.202 135.633 152.187ZM135.885 151.979C135.901 151.965 135.916 151.953 135.933 151.939C135.95 151.927 135.954 151.912 135.937 151.897C135.905 151.865 135.873 151.834 135.84 151.804C135.823 151.79 135.812 151.792 135.8 151.811C135.76 151.87 135.76 151.965 135.802 152.02C135.806 152.026 135.824 152.027 135.83 152.024C135.85 152.01 135.867 151.994 135.885 151.979Z" fill="white"/>
<path d="M139.581 144.554L143.941 150.471C142.512 155.848 135.432 158.496 132.07 159.149L127.717 153.055C127.717 153.055 128.816 152.578 129.441 152.141C130.189 151.617 131.138 150.533 131.138 150.533L138.207 153.493L136.196 146.597C136.196 146.597 137.5 146.439 138.192 146.013C138.862 145.601 139.581 144.554 139.581 144.554Z" fill="white"/>
<ellipse cx="181.205" cy="223.657" rx="14.761" ry="4.01898" transform="matrix(0.852112 -0.524017 0.522702 0.852112 -90.1081 128.031)" fill="white"/>
<rect x="162.795" y="224.484" width="33.1004" height="12.95" transform="rotate(-31.5579 162.795 224.484)" fill="white"/>
<path d="M238.204 328.32C220.291 303.437 222.835 295.565 229.508 290.764C236.18 285.963 244.455 286.051 262.367 310.935C280.28 335.819 294.375 380.876 294.375 380.876C274.032 352.615 256.117 353.204 238.204 328.32Z" fill="#FF0000"/>
<path d="M240.399 305.893C222.486 281.009 225.03 273.137 231.703 268.336C238.376 263.535 246.65 263.624 264.563 288.508C282.475 313.391 296.571 358.448 296.571 358.448C276.227 330.188 258.312 330.777 240.399 305.893Z" fill="#FF0000"/>
<path d="M211.413 316.579C193.5 291.695 196.044 283.823 202.717 279.022C209.389 274.221 217.664 274.31 235.576 299.193C253.489 324.077 267.584 369.134 267.584 369.134C247.241 340.873 229.326 341.462 211.413 316.579Z" fill="#FF0000"/>
<rect x="94.0586" y="161.772" width="89.5961" height="175.672" transform="rotate(-31.5579 94.0586 161.772)" fill="#B7B7B7"/>
<ellipse cx="224.078" cy="287.866" rx="44.798" ry="17.7103" transform="rotate(-31.5579 224.078 287.866)" fill="#B7B7B7"/>
<path fill-rule="evenodd" clip-rule="evenodd" d="M166.661 108.783L90.3148 155.674L182.12 305.148C182.133 305.17 182.147 305.192 182.16 305.214C182.174 305.236 182.188 305.258 182.201 305.28L182.255 305.367L182.256 305.366C187.539 313.503 208.649 309.729 229.602 296.86C250.556 283.99 263.467 266.869 258.598 258.477L258.6 258.476L166.661 108.783Z" fill="url(#paint0_linear_12475_1041)"/>
<path d="M89.6744 154.635C107.929 184.356 184.378 137.402 166.124 107.68C141.163 67.0402 75.3089 46.9038 75.3089 46.9038C75.3089 46.9038 64.5264 113.691 89.6744 154.635Z" fill="url(#paint1_linear_12475_1041)"/>
<path d="M135.179 313.25L172.792 290.148L120.813 205.519C120.813 205.519 110.031 272.306 135.179 313.25Z" fill="url(#paint2_linear_12475_1041)"/>
<path d="M286.854 220.092L249.241 243.194L197.263 158.564C197.263 158.564 261.707 179.147 286.854 220.092Z" fill="url(#paint3_linear_12475_1041)"/>
<ellipse cx="178.469" cy="219.181" rx="29.9748" ry="37.7669" transform="rotate(-31.5579 178.469 219.181)" fill="#EDEDED"/>
<ellipse cx="178.468" cy="219.181" rx="25.0134" ry="33.2266" transform="rotate(-31.5579 178.468 219.181)" fill="#888888"/>
<ellipse cx="2.02007" cy="3.17442" rx="2.02007" ry="3.17442" transform="matrix(0.92836 -0.373812 0.372706 0.927093 131.683 165.682)" fill="black"/>
<ellipse cx="2.02007" cy="3.17442" rx="2.02007" ry="3.17442" transform="matrix(-0.759429 0.651817 0.651172 0.757876 152.211 152.562)" fill="black"/>
<path fill-rule="evenodd" clip-rule="evenodd" d="M138.191 152.67C134.802 154.786 129.138 160.297 133.599 165.414C136.59 168.844 136.153 170.912 135.68 173.148C135.271 175.081 134.836 177.139 136.568 180.311C138.141 183.193 140.1 184.687 142.056 186.178C144.743 188.228 147.423 190.272 149.084 195.902C151.379 203.685 163.031 222.869 168.618 231.367L181.285 223.588L181.285 223.587L193.811 215.976C188.841 207.102 177.47 187.999 171.62 182.376C167.498 178.415 167.54 175.165 167.583 171.926C167.616 169.419 167.649 166.917 165.75 164.096C163.721 161.081 161.203 160.527 158.778 159.994C156.003 159.384 153.351 158.801 151.692 154.588C149.206 148.271 141.705 150.759 138.266 152.793L138.191 152.67Z" fill="white"/>
<ellipse cx="4.88203" cy="6.87666" rx="4.88203" ry="6.87666" transform="matrix(-0.550344 0.835582 0.835391 0.548677 138.977 172.995)" fill="url(#paint4_radial_12475_1041)"/>
<ellipse cx="4.88203" cy="6.87666" rx="4.88203" ry="6.87666" transform="matrix(-1.00003 -0.0247954 -0.0263083 0.999312 167.418 162.159)" fill="url(#paint5_radial_12475_1041)"/>
<path d="M185.092 201.195C178.412 210.614 165.674 216.421 159.962 217.203L161.825 220.136C175.199 219.136 184.029 209.002 186.936 204.105L185.092 201.195Z" fill="#005BBB"/>
<path d="M186.904 203.998C179.18 215.712 167.483 219.251 161.774 220.102L163.283 222.371C176.667 221.209 186.039 212.206 188.859 207.285L186.904 203.998Z" fill="#FFD500"/>
<ellipse opacity="0.2" cx="0.905879" cy="1.42353" rx="0.905879" ry="1.42353" transform="matrix(0.992509 -0.126642 0.125254 0.991564 151.017 154.152)" fill="white"/>
<ellipse opacity="0.2" cx="0.905879" cy="1.42353" rx="0.905879" ry="1.42353" transform="matrix(0.992509 -0.126642 0.125254 0.991564 132.908 165.532)" fill="white"/>
<path d="M139.66 170.802C134.055 162.467 141.424 156.028 141.454 156.155C151.086 153.337 154.832 161.181 155.203 162.453C156.225 165.955 162.866 165.563 163.271 169.613C163.677 173.662 167.668 180.185 169.204 185.493C170.145 188.746 169.622 190.461 168.972 191.211C169.189 191.082 169.106 191.148 168.897 191.293C168.722 191.474 168.541 191.588 168.379 191.645C168.573 191.516 168.762 191.387 168.897 191.293C168.922 191.267 168.947 191.24 168.972 191.211C168.687 191.381 167.882 191.888 166.158 192.995C161.296 196.118 157.057 189.837 148.308 185.032C139.558 180.227 146.667 181.221 139.66 170.802Z" fill="#FF6B0A"/>
<path d="M164.248 189.854C160.089 191.908 153.496 183.931 150.719 179.686C152.822 177.677 157.629 173.733 160.037 174.024C163.046 174.388 169.447 187.285 164.248 189.854Z" fill="black"/>
<path d="M164.376 188.257C166.931 186.232 162.388 180.721 159.797 178.218L154.429 181.481C156.68 184.583 161.822 190.282 164.376 188.257Z" fill="#956C7C"/>
<path d="M162.757 186.281C163.08 185.527 158.614 180.056 156.34 177.414L155.237 178.257C157.609 181.246 162.434 187.035 162.757 186.281Z" fill="#86616F"/>
<path d="M147.094 177.335C146.315 170.047 142.851 167.85 141.217 167.663C142.039 159.673 148.758 159.959 152.015 161.101C152.237 168.557 151.887 162.697 159.126 170.023C164.918 175.883 161.804 180.964 159.523 182.772C155.704 183.996 147.872 184.622 147.094 177.335Z" fill="#EB6005"/>
<path d="M161.201 172.677C149.671 167.941 148.819 177.051 149.835 182.198C151.459 183.573 155.703 185.599 159.69 182.705C163.676 179.81 162.358 174.813 161.201 172.677Z" fill="#EFE5D5"/>
<path d="M153.493 175.882C152.98 175.194 151.912 173.994 151.742 174.698C151.573 175.403 152.839 175.781 153.493 175.882Z" fill="#DACAB0"/>
<path d="M154.885 175.04C154.394 174.336 153.592 172.943 154.314 173.005C155.036 173.067 154.995 174.387 154.885 175.04Z" fill="#DACAB0"/>
<ellipse cx="181.205" cy="223.657" rx="14.761" ry="4.01898" transform="matrix(0.852112 -0.524017 0.522702 0.852112 -90.1081 128.031)" fill="white"/>
<rect x="162.795" y="224.484" width="33.1004" height="12.95" transform="rotate(-31.5579 162.795 224.484)" fill="url(#paint6_linear_12475_1041)"/>
<defs>
<linearGradient id="paint0_linear_12475_1041" x1="117.618" y1="195.067" x2="243.573" y2="159.163" gradientUnits="userSpaceOnUse">
<stop stop-color="#C8C8C8"/>
<stop offset="1" stop-color="white"/>
</linearGradient>
<linearGradient id="paint1_linear_12475_1041" x1="89.3597" y1="149.053" x2="161.227" y2="46.736" gradientUnits="userSpaceOnUse">
<stop stop-color="#C8C8C8"/>
<stop offset="1" stop-color="white"/>
</linearGradient>
<linearGradient id="paint2_linear_12475_1041" x1="123.416" y1="291.604" x2="167.896" y2="244.594" gradientUnits="userSpaceOnUse">
<stop stop-color="#C8C8C8"/>
<stop offset="1" stop-color="white"/>
</linearGradient>
<linearGradient id="paint3_linear_12475_1041" x1="272.867" y1="199.813" x2="210.825" y2="218.227" gradientUnits="userSpaceOnUse">
<stop stop-color="#C8C8C8"/>
<stop offset="1" stop-color="white"/>
</linearGradient>
<radialGradient id="paint4_radial_12475_1041" cx="0" cy="0" r="1" gradientUnits="userSpaceOnUse" gradientTransform="translate(4.88203 6.87666) rotate(90) scale(6.87666 4.88203)">
<stop stop-color="#FFBBBB"/>
<stop offset="1" stop-color="#FFBBBB" stop-opacity="0"/>
</radialGradient>
<radialGradient id="paint5_radial_12475_1041" cx="0" cy="0" r="1" gradientUnits="userSpaceOnUse" gradientTransform="translate(4.88203 6.87666) rotate(90) scale(6.87666 4.88203)">
<stop stop-color="#FFBBBB"/>
<stop offset="1" stop-color="#FFBBBB" stop-opacity="0"/>
</radialGradient>
<linearGradient id="paint6_linear_12475_1041" x1="179.345" y1="224.484" x2="179.345" y2="237.434" gradientUnits="userSpaceOnUse">
<stop stop-color="#888888" stop-opacity="0"/>
<stop offset="1" stop-color="#888888"/>
</linearGradient>
</defs>
</svg>
