<?xml version="1.0" encoding="UTF-8"?>
<!DOCTYPE svg PUBLIC "-//W3C//DTD SVG 1.1//EN" "http://www.w3.org/Graphics/SVG/1.1/DTD/svg11.dtd">
<svg xmlns="http://www.w3.org/2000/svg" version="1.1" width="916px" height="1024px" style="shape-rendering:geometricPrecision; text-rendering:geometricPrecision; image-rendering:optimizeQuality; fill-rule:evenodd; clip-rule:evenodd" xmlns:xlink="http://www.w3.org/1999/xlink">
<style>
    path {
				fill: black;
			}
    @media ( prefers-color-scheme: dark ) {
			path {
				fill: white;
			}
		}
    </style>
<g><path style="opacity:0.991" d="M 178.5,38.5 C 205.936,38.0262 231.936,43.8595 256.5,56C 269.333,64.8333 280.167,75.6667 289,88.5C 304,102.5 319,116.5 334,130.5C 352.107,153.789 363.44,180.122 368,209.5C 370.24,226.847 372.573,244.181 375,261.5C 375.723,269.542 375.39,277.542 374,285.5C 368.338,306.978 363.504,328.645 359.5,350.5C 360.622,354.597 362.956,355.43 366.5,353C 369.977,349.518 373.977,346.852 378.5,345C 392.441,343.004 406.441,342.337 420.5,343C 431.849,346.212 443.349,348.712 455,350.5C 503.642,340.773 552.142,341.606 600.5,353C 624.978,359.576 647.645,369.909 668.5,384C 673.534,388.699 678.2,393.699 682.5,399C 685.266,400.467 687.766,402.3 690,404.5C 691.041,407.636 690.207,410.136 687.5,412C 693.628,414.563 699.295,417.897 704.5,422C 713.319,429.242 722.319,436.242 731.5,443C 736,447.5 740.5,452 745,456.5C 755.413,470.992 765.58,485.659 775.5,500.5C 773.563,501.744 771.896,503.244 770.5,505C 783.878,522.715 799.044,538.882 816,553.5C 822.176,563.852 830.176,572.519 840,579.5C 842.054,583.75 841.554,587.75 838.5,591.5C 839,592.5 839.5,593.5 840,594.5C 855.5,605.333 871,616.167 886.5,627C 890.5,630.333 890.5,633.667 886.5,637C 879.623,637.309 872.957,638.642 866.5,641C 832.178,659.16 796.845,675.16 760.5,689C 741.9,699.133 722.9,708.467 703.5,717C 684.737,724.035 665.403,726.368 645.5,724C 637.709,725.531 630.042,727.531 622.5,730C 616.943,731.504 615.11,735.004 617,740.5C 621.92,745.749 625.587,751.749 628,758.5C 628.667,765.5 628.667,772.5 628,779.5C 623.511,807.317 621.011,835.317 620.5,863.5C 620.454,877.77 623.287,891.437 629,904.5C 633.968,918.735 632.635,932.402 625,945.5C 618.21,955.957 609.71,964.79 599.5,972C 596.692,972.92 594.525,972.087 593,969.5C 592.173,960.448 587.34,955.448 578.5,954.5C 570.901,955.908 563.234,956.574 555.5,956.5C 543.164,955.666 530.831,955.166 518.5,955C 511.559,955.637 505.893,958.637 501.5,964C 497.808,966.159 494.308,965.993 491,963.5C 490.833,962.167 490.667,960.833 490.5,959.5C 492.889,950.057 496.889,941.39 502.5,933.5C 500.201,930.191 497.868,926.858 495.5,923.5C 500.436,916.762 507.102,912.595 515.5,911C 529.114,909.381 542.781,908.381 556.5,908C 565.768,907.814 574.435,905.481 582.5,901C 584.041,899.421 585.208,897.587 586,895.5C 585.755,891.187 585.755,886.853 586,882.5C 588.399,876.637 590.399,870.637 592,864.5C 594.461,846.606 597.294,828.773 600.5,811C 599.979,805.681 598.812,800.515 597,795.5C 592.554,788.942 588.887,781.942 586,774.5C 584.965,767.86 585.965,761.527 589,755.5C 590.894,741.06 584.56,733.727 570,733.5C 558.576,735.487 547.076,736.987 535.5,738C 510.157,738.224 484.824,738.724 459.5,739.5C 446.305,739.549 433.471,737.549 421,733.5C 419.667,734.167 418.333,734.833 417,735.5C 415.48,739.375 415.146,743.375 416,747.5C 418.721,755.941 421.721,764.274 425,772.5C 426.541,783.668 424.875,794.335 420,804.5C 406.772,830.778 395.938,857.945 387.5,886C 387.325,889.746 388.158,893.246 390,896.5C 393.526,901.539 397.526,906.206 402,910.5C 406.974,918.21 407.807,926.377 404.5,935C 401.242,933.13 397.576,931.797 393.5,931C 390.794,928.629 388.461,925.963 386.5,923C 384.635,921.699 382.635,921.365 380.5,922C 377.376,926.414 374.376,930.914 371.5,935.5C 366.138,937.271 360.805,939.105 355.5,941C 348.388,949.118 340.388,956.118 331.5,962C 316.625,969.27 301.958,976.77 287.5,984.5C 284.292,984.292 282.292,982.626 281.5,979.5C 282.909,975.684 284.576,972.017 286.5,968.5C 286.471,966.971 285.804,965.804 284.5,965C 272.656,961.385 260.656,958.385 248.5,956C 239.525,954.334 230.525,954.001 221.5,955C 217.761,953.587 214.261,951.753 211,949.5C 208.032,951.078 204.865,951.745 201.5,951.5C 201.9,946.24 204.567,942.406 209.5,940C 221.765,934.246 234.431,929.912 247.5,927C 246.368,924.79 244.868,924.29 243,925.5C 238.623,923.871 238.456,921.705 242.5,919C 251.465,914.551 260.965,912.384 271,912.5C 279.506,913.084 288.006,913.751 296.5,914.5C 305.158,913.867 313.825,913.367 322.5,913C 326.722,911.974 330.222,909.807 333,906.5C 336.889,895.502 341.556,884.836 347,874.5C 358.953,858.533 369.287,841.533 378,823.5C 382.743,813.396 383.409,803.063 380,792.5C 379.333,788.167 379.333,783.833 380,779.5C 384.554,770.674 387.387,761.341 388.5,751.5C 388.439,748.097 387.939,744.764 387,741.5C 384.56,737.071 382.726,732.404 381.5,727.5C 380.5,726.667 379.5,725.833 378.5,725C 358.851,723.672 339.851,719.339 321.5,712C 293.151,697.836 266.485,681.17 241.5,662C 218.023,634.911 199.19,604.745 185,571.5C 174.073,545.111 168.907,517.611 169.5,489C 170.153,468.16 170.986,447.326 172,426.5C 172.873,387.87 185.206,353.537 209,323.5C 222.038,309.464 234.705,295.13 247,280.5C 264.58,253.186 270.913,223.52 266,191.5C 259.789,173.288 247.289,162.122 228.5,158C 202.176,156.927 175.842,155.927 149.5,155C 138.854,151.673 128.02,149.173 117,147.5C 88.987,152.369 60.987,157.369 33,162.5C 29.0436,163.047 26.5436,161.38 25.5,157.5C 30.1628,148.001 36.8295,140.167 45.5,134C 57.2896,127.623 69.2896,121.623 81.5,116C 91.2529,109.583 99.7529,101.749 107,92.5C 112.942,82.893 119.275,73.5597 126,64.5C 140.453,49.5233 157.953,40.8566 178.5,38.5 Z"/></g>
</svg>
